<svg xmlns="http://www.w3.org/2000/svg" width="100%" height="100%" viewBox="0 0 150 32" fill="none" preserveAspectRatio="xMidYMid meet" aria-hidden="true" role="img">
<g clip-path="url(#clip0_20_5536)">
<path d="M17.0193 10.4644C18.1508 9.14439 19.8345 8.48438 22.0705 8.48438C24.1718 8.48438 25.9094 9.3195 27.2833 10.9898C28.6841 12.66 29.3846 14.6266 29.3846 16.8895C29.3846 19.341 28.6976 21.3884 27.3237 23.0317C25.9498 24.675 24.1718 25.4967 21.9897 25.4967C19.6459 25.4967 18.0161 24.8232 17.1001 23.4762L17.0193 31.7197H13.0996V9.0097H17.0193V10.4644ZM25.384 16.9703C25.384 15.5964 24.9934 14.4111 24.2122 13.4143C23.4309 12.3906 22.3533 11.8788 20.9794 11.8788C19.7133 11.8788 18.6626 12.3906 17.8275 13.4143C16.9924 14.438 16.5748 15.6234 16.5748 16.9703C16.5748 18.2904 17.0193 19.4757 17.9083 20.5264C18.7973 21.577 19.821 22.1023 20.9794 22.1023C22.3533 22.1023 23.4309 21.6174 24.2122 20.6476C24.9934 19.6778 25.384 18.452 25.384 16.9703Z" fill="#124131"></path>
<path d="M36.2961 2.30333C36.2961 2.92294 36.0671 3.46173 35.6092 3.9197C35.1512 4.37767 34.6124 4.60666 33.9928 4.60666C33.3732 4.60666 32.8344 4.37767 32.3764 3.9197C31.9184 3.46173 31.6895 2.92294 31.6895 2.30333C31.6895 1.68372 31.9184 1.14493 32.3764 0.686959C32.8344 0.228987 33.3732 0 33.9928 0C34.6124 0 35.1512 0.228987 35.6092 0.686959C36.0671 1.14493 36.2961 1.68372 36.2961 2.30333ZM35.9728 24.9729H32.0531V9.01127H35.9728V24.9729Z" fill="#124131"></path>
<path d="M43.656 10.4644C44.7606 9.14439 46.3904 8.48438 48.5456 8.48438C52.2093 8.48438 54.0412 10.7338 54.0412 15.2327V24.9714H50.1619V16.5258C50.1619 13.1584 49.1248 11.4747 47.0504 11.4747C44.7875 11.4747 43.656 13.2796 43.656 16.8895V24.9714H39.7363V9.0097H43.656V10.4644Z" fill="#124131"></path>
<path d="M72.49 23.6002C72.49 29.0689 69.9441 31.8032 64.8526 31.8032C62.5896 31.8032 60.6769 31.1836 59.1144 29.9444C57.5519 28.7321 56.7707 27.1427 56.7707 25.1761H60.9329C60.9329 25.9574 61.3235 26.7251 62.1048 27.4794C62.886 28.2338 63.7616 28.6109 64.7314 28.6109C67.2907 28.6109 68.5703 27.0754 68.5703 24.0042V22.994C67.4658 24.3949 65.782 25.0953 63.519 25.0953C61.2831 25.0953 59.5185 24.314 58.2254 22.7516C56.9593 21.1891 56.3262 19.2764 56.3262 17.0134C56.3262 14.5619 57.0131 12.5145 58.3871 10.8712C59.761 9.22791 61.5391 8.40625 63.7211 8.40625C65.9301 8.40625 67.5466 9.09321 68.5703 10.4671V8.93157H72.49V23.6002ZM69.136 16.6497C69.136 15.195 68.7319 14.0231 67.9237 13.1341C67.1156 12.2451 66.0514 11.8006 64.7314 11.8006C63.4114 11.8006 62.3338 12.2855 61.4986 13.2554C60.6905 14.2252 60.2863 15.4509 60.2863 16.9326C60.2863 20.1115 61.768 21.7009 64.7314 21.7009C66.0784 21.7009 67.1425 21.2295 67.9237 20.2866C68.7319 19.3168 69.136 18.1045 69.136 16.6497Z" fill="#124131"></path>
<path d="M81.6286 19.4353L85.8712 8.48438H87.2859L91.7309 19.3949L95.6907 9.0097H100.014L92.5793 25.2947H90.599L86.922 15.0711L82.7195 25.2947H80.6991L73.3848 9.0097H77.7089L81.6286 19.4353Z" fill="#124131"></path>
<path d="M105.829 2.30333C105.829 2.92294 105.6 3.46173 105.142 3.9197C104.684 4.37767 104.145 4.60666 103.526 4.60666C102.906 4.60666 102.367 4.37767 101.91 3.9197C101.451 3.46173 101.223 2.92294 101.223 2.30333C101.223 1.68372 101.451 1.14493 101.91 0.686959C102.367 0.228987 102.906 0 103.526 0C104.145 0 104.684 0.228987 105.142 0.686959C105.6 1.14493 105.829 1.68372 105.829 2.30333ZM105.506 24.9729H101.586V9.01127H105.506V24.9729Z" fill="#124131"></path>
<path d="M113.187 10.6665C114.184 9.21174 115.746 8.48438 117.875 8.48438C118.548 8.48438 119.167 8.61907 119.734 8.88847L119.249 12.4445C118.656 12.0673 118.009 11.8788 117.309 11.8788C114.561 11.8788 113.187 13.8453 113.187 17.7785V24.9714H109.268V9.0097H113.187V10.6665Z" fill="#124131"></path>
<path d="M124.217 17.3744C124.217 18.91 124.553 20.1761 125.227 21.1729C125.9 22.1697 126.83 22.668 128.015 22.668C129.874 22.668 131.06 21.7521 131.571 19.9202L135.289 20.5263C134.077 23.8399 131.652 25.4967 128.015 25.4967C125.591 25.4967 123.651 24.7289 122.196 23.1934C120.768 21.6309 120.055 19.6104 120.055 17.132C120.055 14.5188 120.742 12.431 122.115 10.8685C123.517 9.27909 125.402 8.48438 127.773 8.48438C130.17 8.48438 132.029 9.23868 133.35 10.7473C134.696 12.229 135.37 14.2629 135.37 16.8491V17.3744H124.217ZM131.733 15.1923C131.733 14.0878 131.383 13.118 130.682 12.2828C130.009 11.4477 129.12 11.0302 128.015 11.0302C126.938 11.0302 126.048 11.4747 125.348 12.3637C124.675 13.2257 124.338 14.1686 124.338 15.1923H131.733Z" fill="#124131"></path>
<path d="M137.25 24.9727H149.157V27.9494H137.25V24.9727Z" fill="#124131"></path>
<path d="M0 23.8841V20.0299L6.73852 17.7175V17.444L0 15.1563V11.2773H0.522173L10.4186 15.3055V19.8807L0.522173 23.8841H0Z" fill="#124131"></path>
</g>
<defs>
<clipPath id="clip0_20_5536">
<rect width="149.581" height="32" fill="white"></rect>
</clipPath>
</defs>
</svg>
